grf
version=1
nRows=23
nColumns=28
inDegrees=no
endheader
time	ground_force_1_vx	ground_force_1_vy	ground_force_1_vz	ground_force_1_px	ground_force_1_py	ground_force_1_pz	ground_moment_1_mx	ground_moment_1_my	ground_moment_1_mz	ground_force_2_vx	ground_force_2_vy	ground_force_2_vz	ground_force_2_px	ground_force_2_py	ground_force_2_pz	ground_moment_2_mx	ground_moment_2_my	ground_moment_2_mz	ground_force_3_vx	ground_force_3_vy	ground_force_3_vz	ground_force_3_px	ground_force_3_py	ground_force_3_pz	ground_moment_3_mx	ground_moment_3_my	ground_moment_3_mz
      0.30000000	      0.24209779	      0.44692190	      1.18781276	    259.80338104	  -1340.71620869	      2.20171353	      0.09763738	      0.35305801	    193.45677932	      0.54356701	      0.34996237	      1.65906060	     89.54869626	  -1480.57736962	      0.34835211	     -0.01695141	     -0.21923151	    262.69928731	      5.26911144	    -51.35330168	    -79.75444893	    481.34320101	   -332.28802601	      0.48889882	     -0.00841384	      0.06180749	     30.09654700
      0.31000000	      0.51131220	      0.68524661	      1.83590528	    333.65097936	  -1284.83623554	      2.06246197	      0.07248834	      0.26211878	    143.62698024	      0.32575063	      0.21903366	      1.57740018	     50.62583981	  -1578.27541072	      0.26430816	     -0.00889429	     -0.11502934	    137.83660535	     -3.20982388	    -25.38213395	    -25.67809049	    499.56259146	   -334.71854341	      0.49898367	     -0.14172958	      1.04113512	    506.97048762
      0.32000000	      0.54684854	      0.54453849	      2.24880705	    311.40830704	  -1269.47125764	      2.04564678	      0.08086743	      0.29241767	    160.22913780	      0.65620353	      0.03784460	      1.83460305	     79.23429007	  -1529.87981030	      0.30654198	     -0.01448613	     -0.18734818	    224.49434913	     -0.47786840	     -5.35920438	      0.91854323	    214.95529053	   -425.27195239	      0.60538249	      0.31722290	     -2.33029623	  -1134.71478629
      0.33000000	      0.50784081	      0.49538294	      1.26580738	    257.66100973	  -1235.74675547	      2.01122586	      0.09481398	      0.34284856	    187.86255282	      0.43855539	      0.05522752	      1.42081272	     15.53523944	  -1467.38559261	      0.35458517	     -0.01335171	     -0.17267686	    206.91408851	      1.39890767	     -1.08337943	      4.76804875	    490.71446315	   -336.75009480	      0.50068215	     -0.08594921	      0.63137659	    307.44260806
      0.34000000	      0.44738384	      0.22745236	      1.32006688	    260.77988812	  -1329.02796892	      2.17988969	      0.05160751	      0.18661343	    102.25411089	      0.48474032	      0.17611299	      1.29201836	    -69.95378027	  -1248.88373442	      0.53141600	     -0.02289088	     -0.29604636	    354.74448366	      1.58646854	     -0.71086008	      4.74511878	    421.89148123	   -319.80322712	      0.44663910	     -0.08196877	      0.60213662	    293.20449238
      0.35000000	      0.64695958	      0.20701799	      1.66491801	    223.54081051	  -1256.33774944	      2.06602478	      0.05113415	      0.18490174	    101.31619681	      0.54428860	      0.27235984	      0.95863369	   -243.14952392	  -1442.47973130	      0.35867761	     -0.02960682	     -0.38290316	    458.82267852	      1.46342689	     -0.81489549	      4.55590084	    433.48951754	   -330.82365208	      0.47251346	     -0.08311383	      0.61054812	    297.30039103
      0.36000000	      0.58456169	      0.38947220	      1.58382427	    261.87358172	  -1330.35441028	      2.18175845	      0.05639093	      0.20391034	    111.73188557	      0.35196907	      0.18027182	      1.41617294	     15.10509042	  -1451.49118028	      0.36782185	     -0.01243191	     -0.16078112	    192.65973763	      1.52526796	     -0.56886752	      4.58567312	    453.52825719	   -290.23494369	      0.39476091	     -0.09678839	      0.71100045	    346.21466351
      0.37000000	      0.42200901	      0.48274985	      1.95174703	    299.10975059	  -1272.67890226	      2.05770779	      0.06552033	      0.23692236	    129.82069433	      0.35973872	      0.20425298	      1.73833611	     81.31508999	  -1506.23090919	      0.32641206	     -0.01301755	     -0.16835513	    201.73548305	      1.48449581	     -0.79369169	      4.09393109	    515.47588928	   -255.33406353	      0.34040524	     -0.12347537	      0.90704107	    441.67471284
      0.38000000	      0.60289475	      0.30496057	      1.95786263	    275.22786157	  -1260.10217585	      2.04680846	      0.07409212	      0.26791808	    146.80468140	      0.62327637	      0.19805994	      1.14223372	    -53.93828517	  -1434.35529498	      0.37766711	     -0.02257463	     -0.29195625	    349.84341491	      1.57214911	     -0.82122505	      5.03382892	    440.28316430	   -337.54777170	      0.48822163	     -0.09438513	      0.69334624	    337.61812195
      0.39000000	      0.49042090	      0.40853562	      1.95835890	    295.79912142	  -1315.70989369	      2.13791008	      0.08194136	      0.29630101	    162.35699665	      0.30334987	      0.02688120	      1.50812788	    -12.74890592	  -1494.71456255	      0.32995310	     -0.00690875	     -0.08935042	    107.06622870	      1.62712964	     -0.91417225	      4.63357914	    458.46159390	   -308.15500324	      0.43294144	     -0.10777171	      0.79168311	    385.50229092
      0.40000000	      0.32311023	      0.48854096	      1.74301534	    259.12709950	  -1288.76852295	      2.10725049	      0.09726061	      0.35169562	    192.71026005	      0.27108508	      0.27045383	      1.74662051	    102.76040322	  -1509.77939326	      0.32483455	     -0.01380403	     -0.17852672	    213.92382807	      1.62043196	     -0.65504044	      4.79105208	    449.86561339	   -343.95987032	      0.50406866	     -0.07057310	      0.51842485	    252.44187293
      0.41000000	      0.35001982	      0.56436793	      2.00560763	    318.58535454	  -1286.57612267	      2.07324086	      0.07769444	      0.28094409	    153.94223374	      0.38146311	      0.01139955	      1.90437731	    113.29563113	  -1570.66358467	      0.27470443	     -0.00655443	     -0.08476808	    101.57533361	      1.50387594	     -0.97874472	      4.37009289	    477.04788653	   -267.51700908	      0.35468163	     -0.12404660	      0.91123727	    443.71800917
      0.42000000	      0.38495921	      0.54051870	      1.74171719	    306.04669064	  -1296.30315710	      2.09732092	      0.07811701	      0.28247210	    154.77950194	      0.38831773	      0.01941507	      1.57472532	     29.60246886	  -1504.53143825	      0.32449343	     -0.00802877	     -0.10383563	    124.42347465	      1.73192933	     -0.68200755	      5.07619563	    442.80664751	   -339.87914352	      0.49371490	     -0.08033224	      0.59011480	    287.35058833
      0.43000000	      0.59589903	      0.46224438	      1.23128748	    165.98548937	  -1323.64765308	      2.21791323	      0.10527749	      0.38068476	    208.59475312	      0.48064865	      0.10542885	      1.37222755	    -25.21268953	  -1453.41498576	      0.36361475	     -0.01524506	     -0.19716337	    236.25562983	      1.42644375	     -0.77503316	      4.75348239	    442.77649718	   -329.97354212	      0.47336392	     -0.11520766	      0.84630708	    412.10089306
      0.44000000	      0.59028674	      0.33914680	      2.03243611	    310.77430830	  -1275.33336069	      2.05666508	      0.05901183	      0.21338754	    116.92488406	      0.49224180	      0.24871476	      1.32725528	    -17.22961950	  -1393.97550771	      0.41373415	     -0.02138807	     -0.27661056	    331.45507868	      1.49976137	     -0.72379991	      5.04089620	    456.23298954	   -330.18023144	      0.47755031	     -0.08843250	      0.64961869	    316.32542144
      0.45000000	      0.56608391	      0.28787743	      1.89937023	    338.96403151	  -1309.80637814	      2.10535091	      0.05529850	      0.19996010	    109.56736774	      0.27158957	      0.19240088	      1.91873079	    118.76528791	  -1610.90215819	      0.24147692	     -0.01282409	     -0.16585317	    198.73744257	      1.62110179	     -0.77342592	      5.02543229	    488.15310354	   -319.93494534	      0.46543382	     -0.14010366	      1.02919125	    501.15453694
      0.46000000	      0.58916482	      3.95872355	     -5.96895360	    392.60122517	  -1449.20448929	      2.33268141	     -0.04459286	     -0.16124837	    -88.35542648	      0.53124808	      0.19381416	      1.83630374	     50.67255653	  -1471.58673708	      0.35334651	     -0.01417845	     -0.18336906	    219.72626794	      1.57641853	     -0.78685094	      4.98954452	    484.96957862	   -341.27721985	      0.50837319	     -0.08200436	      0.60239805	    293.33179596
      0.47000000	     43.43687847	     79.76321530	   -270.55267569	    369.22564169	  -1430.98991920	      2.31123750	      0.18264711	      0.66045432	    361.89340271	     22.56317043	    -10.66559926	   -109.38745035	    366.92323193	  -1515.67581884	      0.33695963	     -0.02303938	     -0.29796687	    357.04577980	      1.66966019	     -1.18960126	      6.89240227	    482.84762595	   -398.84473354	      0.62600295	     -0.04970117	      0.36510115	    177.78240851
      0.48000000	    130.55309185	    283.37377274	   -929.65357262	    384.78811152	  -1446.30280389	      2.33132911	      0.08887174	      0.32136135	    176.08871818	     66.98803669	     83.81017706	   -626.25832396	    378.59247897	  -1539.57284577	      0.31776974	      0.05918060	      0.76537900	   -917.13330847	      2.65257605	     -0.47153983	      5.31058211	    473.06597738	   -298.60091218	      0.41740360	     -0.15195134	      1.11622343	    543.53399956
      0.49000000	    -88.95868355	     86.70591507	  -1220.35457917	    412.38523455	  -1434.73241296	      2.29628495	     -0.59431262	     -2.14904212	  -1177.55936444	    -21.87982471	    -23.56057913	   -793.71709575	    399.31203892	  -1544.78325865	      0.31475846	      0.23405027	      3.02695758	  -3627.12281393	      1.96779525	     -0.87927233	      5.76321812	    495.53109116	   -353.60223115	      0.53663692	     -0.10822302	      0.79499842	    387.11664750
      0.50000000	   -139.23421397	    224.33299801	  -1074.92120738	    421.20895908	  -1447.16473930	      2.31452058	      0.75979126	      2.74741500	   1505.43548581	     80.32309753	     64.29191227	  -1126.73674091	    400.99765577	  -1551.67800283	      0.30911333	     -0.12987929	     -1.67972080	   2012.76479143	      2.13140008	     -0.49203280	      6.21323592	    445.33065838	   -325.19947021	      0.46427374	     -0.17096757	      1.25591528	    611.55556917
      0.51000000	   -116.49158624	    248.92481239	   -912.36756561	    422.52739175	  -1454.88734200	      2.32794890	      0.02069563	      0.07483568	     41.00592162	      4.35048053	    120.38520198	  -1418.08841630	    408.70954409	  -1560.12537171	      0.30256134	      0.12664844	      1.63793638	  -1962.69562638	      1.63671978	     -0.42112738	      5.83904603	    498.16239804	   -328.48951238	      0.48580004	     -0.12899610	      0.94759591	    461.42249030
      0.52000000	    -74.70850673	    208.81757506	   -807.47091165	    418.71053421	  -1457.92889916	      2.33542609	      0.11208953	      0.40531720	    222.09199895	     54.42190619	     79.86964272	  -1613.12376351	    408.31953364	  -1561.12813079	      0.30169934	      0.08939337	      1.15611897	  -1385.34662770	      1.66391815	     -0.62145641	      5.23646334	    500.11638724	   -302.78089775	      0.43355005	     -0.12364248	      0.90826861	    442.27244893
